<svg width="195" height="82" viewBox="0 0 195 82" fill="none" xmlns="http://www.w3.org/2000/svg">
<rect width="195" height="82" rx="41" fill="#4856CD"/>
<path d="M150.552 26.0261C150.552 27.8801 149.844 29.485 148.505 30.6642C147.268 31.7563 145.588 32.3106 143.516 32.3106H138.666V55.6652C138.666 58.0278 138.033 59.913 136.785 61.2687C135.486 62.6784 133.746 63.4237 131.757 63.4237C129.768 63.4237 127.997 62.6742 126.691 61.2562C125.435 59.8943 124.798 58.0133 124.798 55.6652V32.3106H119.946C117.857 32.3106 116.176 31.748 114.949 30.6352C114.861 30.5563 114.776 30.4753 114.695 30.3923V55.6652C114.695 58.0112 114.058 59.8922 112.802 61.2562C111.494 62.6742 109.733 63.4237 107.711 63.4237C105.689 63.4237 103.993 62.6659 102.685 61.2313C102.06 60.5483 101.589 59.7365 101.275 58.8064C100.959 57.8783 100.802 56.8278 100.802 55.6652V28.8829C100.764 28.9909 100.727 29.0967 100.687 29.2026C100.544 29.5909 100.401 29.9936 100.26 30.4068L100.235 30.4711L91.3843 54.3593C91.0625 55.2873 90.7344 56.1884 90.4085 57.0375C90.0078 58.0797 89.5282 59.0244 88.9822 59.8445C88.2908 60.8846 87.369 61.74 86.2479 62.3877C85.0603 63.0749 83.661 63.4237 82.0914 63.4237C80.5219 63.4237 79.1412 63.0853 77.962 62.4168C76.8263 61.7732 75.89 60.9054 75.1841 59.8382C74.6319 59.0078 74.1523 58.0631 73.7536 57.0354C73.4256 56.1904 73.0955 55.2873 72.7737 54.3551L64.0497 30.6061C63.9106 30.2054 63.7653 29.8089 63.62 29.4227C63.4082 28.8684 63.2297 28.2663 63.0864 27.6331C62.9265 26.9126 62.8477 26.2794 62.8477 25.7002C62.8477 24.004 63.5203 22.4199 64.793 21.116C66.0844 19.7915 67.7764 19.0918 69.6823 19.0918C72.8277 19.0918 74.3952 20.7091 75.0471 21.6745C75.398 22.1936 75.7384 22.8206 76.0706 23.568C76.4028 24.3154 76.7288 25.1832 77.0526 26.1818L82.2596 41.6034L87.5123 25.9908C87.9711 24.6081 88.322 23.6406 88.5752 23.0448C88.9967 22.0545 89.6715 21.1742 90.5808 20.433C91.6708 19.5423 93.0473 19.0918 94.677 19.0918C95.8874 19.0918 97.0293 19.3991 98.0715 20.0074C99.0951 20.6074 99.9131 21.4192 100.503 22.424C100.8 22.9306 101.026 23.4517 101.177 23.9832C101.487 22.9306 101.985 22.0233 102.67 21.2717C103.97 19.8454 105.712 19.0918 107.711 19.0918C109.71 19.0918 111.481 19.8309 112.787 21.2323C113.205 21.6787 113.555 22.1853 113.836 22.7437C114.158 22.2164 114.564 21.7389 115.054 21.3195C116.294 20.2544 117.94 19.7146 119.946 19.7146H143.516C145.621 19.7146 147.316 20.2835 148.551 21.4025C149.861 22.5901 150.552 24.1887 150.552 26.0261Z" fill="#F3F4F1"/>
<path d="M163.466 30.8926H163.433C163.389 30.8926 163.356 30.8967 163.335 30.8988C163.329 30.9445 163.325 31.0088 163.325 31.094C163.325 31.1708 163.333 31.2165 163.337 31.231C163.339 31.2372 163.343 31.2435 163.348 31.2476C163.429 31.1625 163.464 31.1085 163.476 31.0857C163.476 31.0005 163.47 30.9362 163.466 30.8926ZM163.283 49.9412C163.167 49.6589 163.076 49.5862 163.076 49.5862C163.063 49.5779 163.055 49.5737 163.053 49.5717H163.015C162.924 49.5717 162.907 49.5717 162.812 49.663C162.795 49.6775 162.785 49.69 162.779 49.6983C162.777 49.7108 162.772 49.7357 162.772 49.771C162.772 49.8893 162.783 49.9661 162.791 50.0097C162.858 50.0596 162.932 50.0886 163.103 50.0886H163.339C163.321 50.0326 163.302 49.9827 163.283 49.9412Z" fill="#F3F4F1"/>
<path d="M169.267 47.4538C168.704 46.1022 167.869 45.0351 166.786 44.2752C165.662 43.4904 164.392 43.0918 163.015 43.0918C161.24 43.0918 159.621 43.7479 158.327 44.9852C156.999 46.26 156.295 47.9147 156.295 49.7708C156.295 52.2538 157.362 53.8068 158.313 54.6975C157.094 55.6753 156.405 57.0746 156.405 58.6131C156.405 59.8235 156.831 60.9446 157.636 61.856C158.529 62.8671 159.783 63.4235 161.166 63.4235C162.687 63.4235 164.215 62.7612 165.71 61.4553C166.937 60.3819 167.969 58.9556 168.775 57.2179C169.586 55.4615 170 53.5639 170 51.5728C170 50.0095 169.752 48.6247 169.267 47.4538ZM163.103 50.0884C162.932 50.0884 162.858 50.0593 162.791 50.0095C162.783 49.9659 162.772 49.8891 162.772 49.7708C162.772 49.7355 162.777 49.7105 162.779 49.6981C162.785 49.6898 162.795 49.6773 162.812 49.6628C162.907 49.5715 162.924 49.5715 163.015 49.5715H163.053C163.053 49.5715 163.063 49.5777 163.076 49.586C163.076 49.586 163.167 49.6586 163.283 49.941C163.302 49.9825 163.321 50.0324 163.339 50.0884H163.103Z" fill="#F3F4F1"/>
<path d="M167.968 26.2068C166.72 25.0337 165.152 24.415 163.433 24.415C161.714 24.415 160.124 25.0213 158.876 26.1673C157.95 27.0185 156.846 28.5632 156.846 31.094C156.846 32.3335 157.147 33.4774 157.738 34.4927H157.741C158.314 35.4767 159.096 36.274 160.066 36.8636C161.085 37.4823 162.219 37.7958 163.433 37.7958C164.648 37.7958 166.398 37.4366 168.034 35.7196C169.292 34.4034 169.957 32.8047 169.957 31.094C169.957 28.6026 168.875 27.06 167.968 26.2068ZM163.348 31.2476C163.348 31.2476 163.34 31.2373 163.338 31.231C163.334 31.2165 163.325 31.1708 163.325 31.094C163.325 31.0089 163.33 30.9445 163.336 30.8988C163.356 30.8968 163.39 30.8926 163.433 30.8926H163.467C163.471 30.9362 163.477 31.0006 163.477 31.0857C163.464 31.1085 163.429 31.1625 163.348 31.2476Z" fill="#F3F4F1"/>
<path d="M65.8792 47.7528C65.655 49.5923 65.0363 51.5044 64.0398 53.4352C63.0142 55.4221 61.5006 57.2346 59.5449 58.8249C57.5954 60.4069 55.158 61.6236 52.2992 62.4436C50.2168 63.0416 48.2195 63.3924 46.3593 63.49C46.0188 63.5066 45.6783 63.5149 45.342 63.5149C43.7496 63.5149 42.207 63.3177 40.7433 62.9274C38.9579 62.4499 37.2035 61.6464 35.5301 60.5398L35.5073 60.5253C34.0415 59.5391 32.6796 58.3412 31.4547 56.9626C30.2401 55.5944 29.1709 54.0498 28.2823 52.3702C27.4083 50.7217 26.6795 48.8968 26.1211 46.9431C25.2075 43.7562 24.8484 40.696 25.0581 37.8496C25.2719 34.9347 26.0339 32.2274 27.319 29.8046C28.6083 27.3775 30.3668 25.2848 32.5467 23.5844C34.6935 21.911 37.1641 20.6654 39.888 19.8847C43.2202 18.9297 46.4527 18.747 49.5005 19.3408C52.5566 19.9387 55.1539 21.0806 57.2238 22.7374C59.4141 24.4938 60.8342 26.4661 61.4487 28.6045C61.9055 30.2011 61.7456 31.8475 60.9837 33.361C60.1761 34.9659 58.8556 36.0683 57.1636 36.5541C55.4321 37.0503 53.875 36.9506 52.5379 36.2551C51.6223 35.7797 50.6694 35.0094 49.5358 33.8323C48.4811 32.7423 47.4389 32.0198 46.4403 31.6835C45.5642 31.3907 44.5531 31.4156 43.3468 31.7624C41.3869 32.325 40.1371 33.417 39.4167 35.2025C38.6008 37.2268 38.6755 39.959 39.6409 43.3265C40.3032 45.631 41.1482 47.4331 42.1572 48.6829C43.0333 49.7646 43.9572 50.4394 44.987 50.7425C46.0583 51.0601 47.2105 51.0331 48.506 50.6615C49.8991 50.2629 50.9165 49.638 51.6182 48.7515C52.3282 47.8525 52.731 46.6857 52.8452 45.1826C52.9012 43.8331 53.1359 42.6227 53.5428 41.5888C54.0016 40.422 55.075 38.8815 57.5726 38.1652C59.2314 37.6898 60.9131 37.8704 62.4349 38.6863H62.437C63.9879 39.5209 65.0695 40.8725 65.5637 42.5936C66.0038 44.1299 66.1097 45.8656 65.8792 47.7528Z" fill="#F3F4F1"/>
</svg>
